<svg width="372" height="51" viewBox="0 0 372 51" fill="none" xmlns="http://www.w3.org/2000/svg">
<g clip-path="url(#clip0_30_631)">
<mask id="mask0_30_631" style="mask-type:luminance" maskUnits="userSpaceOnUse" x="0" y="-162" width="372" height="373">
<path d="M0.000488281 -161.069H371.954V210.885H0.000488281V-161.069Z" fill="white"/>
</mask>
<g mask="url(#mask0_30_631)">
<path d="M74.1867 29.6352C73.4121 31.3266 72.3816 32.819 70.8324 33.9208C69.3824 34.9513 67.7833 35.5693 66.0211 35.7898C65.1393 35.8965 64.2584 35.9393 63.3626 35.8965C61.9485 35.8401 60.5839 35.6266 59.2975 35.0296C57.855 34.3682 56.7532 33.3522 56.0783 31.8812C55.5451 30.7156 55.3606 29.4861 55.3391 28.2282C55.3247 27.0131 55.4883 25.8186 55.7442 24.6394C56.2345 22.3151 57.0375 20.1264 58.5159 18.2286C60.506 15.6773 63.1352 14.2842 66.3049 13.8652C67.2077 13.744 68.11 13.744 69.0128 13.7584C70.2852 13.7869 71.5147 13.9929 72.6659 14.533C73.888 15.1017 74.8052 15.99 75.3593 17.2335C75.8995 18.456 75.9992 19.7424 75.9209 21.0572C75.9135 21.2492 75.9065 21.3699 75.9209 21.4482H94.2992C94.3136 21.4128 94.3206 21.3769 94.3206 21.3345C94.3775 20.709 94.4912 20.0905 94.4982 19.4655C94.5196 18.6694 94.5266 17.8664 94.4558 17.0703C94.3136 15.3575 93.8872 13.737 93.1265 12.2022C92.1818 10.2899 90.7743 8.77656 89.0545 7.53262C86.7306 5.84823 84.108 4.84618 81.3433 4.17128C79.3676 3.68797 77.3565 3.40366 75.3239 3.23308C73.9877 3.11936 72.6375 3.0835 71.2942 3.04107C70.4269 3.01264 69.567 3.05507 68.7001 3.09093C67.5629 3.12636 66.4187 3.19022 65.2819 3.28251C63.7466 3.39623 62.2328 3.60224 60.726 3.87954C58.5159 4.27757 56.3482 4.84618 54.2588 5.66366C50.6341 7.07774 47.3651 9.04643 44.6856 11.9105C43.9394 12.7135 43.2501 13.5734 42.6246 14.4762C41.1038 16.6723 39.9666 19.053 39.206 21.6118C38.3107 24.6179 37.7565 27.6596 37.8632 30.8083C37.8987 31.8029 37.9839 32.7766 38.1755 33.7502C38.9501 37.5949 40.9827 40.58 44.2806 42.7053C46.0503 43.8421 47.9691 44.6312 49.9802 45.2138C53.0223 46.0951 56.1422 46.4647 59.2905 46.6068C61.2806 46.6921 63.2778 46.6847 65.2674 46.564C66.4401 46.4931 67.6127 46.4008 68.7784 46.2727C70.548 46.0737 72.3033 45.7684 74.0445 45.3489C76.8731 44.6666 79.5736 43.6431 82.1393 42.243C84.4137 41.0065 86.3964 39.4074 88.1307 37.5026C89.8645 35.6122 91.2152 33.4659 92.1818 31.0922C92.4162 30.531 92.6507 29.9694 92.8213 29.3868H74.3428C74.2864 29.4507 74.2366 29.529 74.1867 29.6352Z" fill="black"/>
<path fill-rule="evenodd" clip-rule="evenodd" d="M150.53 15.521C149.741 12.0669 147.858 9.38043 144.98 7.35532C142.847 5.85551 140.46 4.93174 137.951 4.28484C134.568 3.41094 131.1 3.16206 127.624 3.06977C126.793 3.04834 125.961 3.08377 125.13 3.1192C123.943 3.16206 122.756 3.21893 121.569 3.31121C119.913 3.44637 118.272 3.67381 116.644 3.98611C113.268 4.64044 110.027 5.67793 107.007 7.35532C104.661 8.65568 102.53 10.2403 100.732 12.2519C99.0257 14.1563 97.7039 16.2956 96.6664 18.6124C95.8988 20.3397 95.3446 22.1373 94.9252 23.9713C94.4843 25.8971 94.2429 27.8514 94.1716 29.8271C94.1506 30.2466 94.2074 30.673 94.2144 31.0925C94.2573 32.4357 94.4559 33.743 94.8259 35.0298C95.5646 37.6166 96.9507 39.8053 98.9973 41.554C100.519 42.8473 102.252 43.7781 104.114 44.5033C105.799 45.1497 107.533 45.6046 109.31 45.9462C111.392 46.3368 113.488 46.5214 115.599 46.6355C116.509 46.6924 117.419 46.6495 118.328 46.6495C119.935 46.6924 121.526 46.6141 123.125 46.5C124.781 46.3797 126.43 46.1807 128.058 45.8819C131.668 45.214 135.129 44.1052 138.363 42.3211C140.708 41.0278 142.776 39.3863 144.553 37.3817C147.005 34.6104 148.661 31.3982 149.706 27.8588C150.374 25.5704 150.828 23.2321 150.949 20.8514C151.042 19.0673 150.935 17.2836 150.53 15.521ZM131.568 29.5078C129.813 33.0323 126.935 35.0578 123.076 35.7332C122.408 35.8469 121.747 35.9396 121.071 35.9108C120.844 35.9038 120.638 36.0389 120.439 35.975C118.861 35.9038 117.326 35.79 115.869 35.172C113.652 34.2334 112.359 32.5634 111.882 30.2251C111.534 28.5123 111.683 26.7995 112.003 25.0941C112.316 23.4097 112.814 21.7822 113.595 20.2469C114.896 17.7096 116.807 15.8267 119.458 14.7179C120.503 14.2844 121.605 14.0426 122.728 13.8794C123.396 13.7871 124.071 13.7513 124.732 13.7583C126.381 13.7797 128.015 13.9359 129.543 14.654C131.043 15.3574 132.123 16.4517 132.784 17.973C133.203 18.9536 133.402 19.9701 133.438 21.029C133.545 24.0212 132.891 26.8493 131.568 29.5078Z" fill="black"/>
<path d="M33.3007 38.0431C33.3007 42.8045 29.4416 46.6636 24.6801 46.6636C19.9113 46.6636 16.0518 42.8045 16.0518 38.0431C16.0518 33.2742 19.9113 29.4147 24.6801 29.4147C29.4416 29.4147 33.3007 33.2742 33.3007 38.0431Z" fill="#C8102E"/>
<path d="M214.841 5.35088L207.755 43.5083H224.471L226.418 32.0513C226.418 32.0513 248.031 33.395 253.282 27.3323L255.578 24.156C255.578 24.156 253.155 38.4123 263.474 42.4494C270.901 44.5812 285.697 49.1865 300.146 37.8507C304.325 31.8169 304.559 31.0567 304.559 31.0567C304.559 31.0567 303.351 35.7617 309.414 42.03C318.489 44.5812 320.06 46.6991 330.876 44.8297C341.238 43.4226 348.623 41.2698 352.36 34.1058C353.54 28.5688 354.471 22.8482 346.114 19.3229C345.879 19.7423 354.294 19.2804 354.294 19.2804C354.294 19.2804 356.035 8.07276 347.329 6.36694C338.452 4.30596 332.007 4.8317 323.13 5.00272C316.165 7.44029 312.839 9.55813 310.245 11.9673C308.333 15.7979 307.324 17.5392 307.324 17.5392C307.324 17.5392 306.642 11.3987 298.661 7.40487C293.011 5.52846 281.867 3.89394 273.161 6.36694C267.767 9.18154 264.632 9.67886 259.927 14.8243L258.016 16.3237C258.016 16.3237 258.001 9.22397 251.918 7.29115C249.203 6.34551 247.561 5.90506 246.055 5.69905C243.297 5.32245 241.193 5.48603 240.603 5.52846C237.207 5.7699 229.78 5.79833 214.841 5.35088Z" fill="white"/>
<path d="M182.049 28.8748C182.049 28.9388 182.035 29.0172 181.985 29.0102C181.936 29.0102 181.928 28.9243 181.943 28.8608L182.049 28.8748Z" fill="#9E9E9E"/>
<path fill-rule="evenodd" clip-rule="evenodd" d="M286.421 15.8193C284.595 15.2507 282.74 15.2363 280.871 15.542C277.686 16.0677 275.306 17.7521 273.742 20.5667C272.548 22.727 272.051 25.0797 271.937 27.5816C271.951 27.9009 271.959 28.2849 272.001 28.6545C272.271 31.4118 273.813 33.1885 276.187 33.8922C277.942 34.411 279.719 34.4394 281.51 34.1626C284.843 33.6508 287.345 31.9236 288.894 28.9244C290.173 26.4299 290.764 23.7575 290.494 20.9503C290.245 18.3352 288.745 16.5441 286.421 15.8193ZM286.045 27.3611C285.028 29.3793 283.393 30.5589 281.169 30.9429C280.636 31.0352 280.11 31.0641 279.577 31.0566C278.731 31.0641 277.9 31.0426 277.075 30.7793C275.86 30.3888 275.32 29.6426 275.235 28.3418C275.107 26.5012 275.448 24.7241 276.152 23.0183C276.6 21.9524 277.21 21.0002 278.099 20.2256C279.115 19.3372 280.309 18.8823 281.617 18.6903C282.726 18.5342 283.834 18.5342 284.936 18.7686C285.746 18.9462 286.464 19.2589 286.897 20.0121C287.153 20.467 287.281 20.9718 287.302 21.4975C287.38 23.5515 286.976 25.5132 286.045 27.3611Z" fill="black"/>
<path fill-rule="evenodd" clip-rule="evenodd" d="M355.714 14.0214C355.48 12.6283 355.003 11.3205 354.236 10.1339C353.007 8.24348 351.315 6.86483 349.311 5.87676C347.228 4.84627 345.011 4.24224 342.729 3.85121C341.407 3.62377 340.071 3.46762 338.728 3.34647C337.421 3.22575 336.106 3.14789 334.791 3.12646C333.1 3.09803 331.401 3.06216 329.702 3.16188C328.672 3.22574 327.642 3.26861 326.611 3.3539C324.642 3.51705 322.695 3.79435 320.769 4.2348C318.992 4.64726 317.265 5.19444 315.616 5.98349C313.641 6.92869 311.899 8.19362 310.435 9.83514C309.54 10.8376 308.815 11.946 308.247 13.1615C308.055 13.5665 307.877 13.9785 307.692 14.3766C307.6 14.3696 307.6 14.3127 307.592 14.2773C306.747 11.9958 305.44 10.0272 303.599 8.42806C301.538 6.64438 299.157 5.43631 296.57 4.62583C293.379 3.62377 290.088 3.23274 286.762 3.12646C284.744 3.06216 282.718 3.0836 280.693 3.26117C279.165 3.38933 277.644 3.55991 276.137 3.82978C272.797 4.42682 269.599 5.42887 266.607 7.0564C264.944 7.95218 263.409 9.03909 261.973 10.2686C261.085 11.0222 260.318 11.8966 259.578 12.7919C259.507 12.8772 259.472 13.0403 259.287 12.9979C258.683 10.8162 257.418 9.04653 255.676 7.62501C254.141 6.36708 252.372 5.5356 250.467 4.98143C248.072 4.27767 245.613 4.02879 243.133 4.02879C227.057 4.0148 210.973 4.02179 194.898 4.02179C194.819 4.02179 194.741 4.02879 194.663 4.02179C194.421 3.98637 194.293 4.10709 194.201 4.3201C193.966 4.83184 193.711 5.33659 193.462 5.84134C192.346 8.09433 191.216 10.3329 190.129 12.5999C189.048 14.8314 187.926 17.0416 186.824 19.2661L184.187 24.5822L182.048 28.8747C181.984 28.9031 181.991 28.967 181.977 29.0239C181.984 28.967 181.991 28.9106 181.942 28.8607C181.913 28.6118 181.878 28.3704 181.863 28.1215C181.785 26.9918 181.671 25.8755 181.587 24.7528C181.458 23.239 181.345 21.7251 181.203 20.2183C181.082 18.925 180.997 17.6316 180.89 16.3383L180.613 12.9695C180.542 12.0667 180.485 11.1574 180.406 10.2546C180.3 8.97523 180.179 7.7033 180.065 6.42394C180.001 5.74161 179.952 5.05228 179.881 4.36996C179.845 4.02879 179.831 4.02179 179.511 4.02179H156.435C156.058 4.02179 156.058 4.02879 155.987 4.39139L155.12 8.81909L153.364 17.7523C153.073 19.2447 152.775 20.7301 152.491 22.2225C152.128 24.1273 151.787 26.0391 151.417 27.944C151.026 29.9691 150.614 31.9946 150.216 34.0202L148.368 43.4656L148.013 45.3131H162.867C162.874 45.2921 162.895 45.2847 162.895 45.2567C162.902 45.164 162.938 45.0717 162.959 44.9794C163.407 42.6626 163.854 40.3383 164.309 38.0219C164.743 35.8253 165.184 33.6296 165.617 31.4334C166.171 28.6263 166.726 25.8187 167.266 23.0045C167.643 21.0857 167.991 19.1599 168.36 17.2406C168.588 16.0609 168.822 14.8883 169.057 13.7157C169.128 14.1706 169.227 14.8459 169.327 15.6704C169.476 16.8286 169.561 17.6885 169.597 18.0511C169.689 19.0531 169.625 18.2925 170.243 23.9711L170.805 29.2373C170.94 30.5311 171.061 31.8245 171.196 33.1104C171.409 35.0865 171.629 37.0552 171.843 39.0305C172.063 41.0635 172.276 43.103 172.489 45.1356C172.503 45.2139 172.503 45.2707 172.518 45.3131H185.111C185.147 45.2707 185.182 45.2213 185.211 45.157C185.808 43.9485 186.433 42.7474 187.037 41.5398C188.523 38.5476 190.008 35.548 191.501 32.5632C192.467 30.6304 192.695 30.1825 193.334 28.9176C193.334 28.9176 194.002 27.5958 194.805 25.9963C195.594 24.4046 200.882 13.6732 200.996 13.7157C201.067 13.7371 200.292 17.7882 199.304 22.4503L198.956 24.2554C198.636 25.897 198.316 27.5389 198.01 29.1805C197.556 31.6609 197.051 34.1269 196.568 36.6003L194.947 44.944C194.912 45.1216 194.891 45.2353 194.898 45.3131H226.048C226.09 45.2633 226.119 45.1999 226.133 45.1071C226.246 44.4248 226.388 43.7495 226.517 43.0746L227.824 36.4932C228.016 35.5414 228.215 34.5888 228.379 33.6366C228.428 33.3663 228.542 33.288 228.784 33.3168C228.876 33.3238 228.976 33.3168 229.068 33.3168H239.217C239.892 33.3168 240.56 33.2814 241.235 33.2311C242.99 33.1104 244.71 32.8265 246.409 32.3716C249.038 31.6749 251.448 30.5377 253.601 28.8747C253.679 28.8183 253.729 28.6901 253.878 28.7614C253.921 29.4009 253.9 30.0408 253.935 30.6873C254.028 32.2151 254.312 33.6934 254.81 35.1434C255.669 37.6663 257.126 39.7981 259.159 41.5109C260.943 43.0177 262.99 44.0622 265.185 44.8373C267.986 45.8179 270.885 46.2653 273.827 46.4932C275.157 46.5925 276.493 46.6424 277.822 46.6209C279.186 46.5995 280.551 46.5571 281.908 46.4503C283.458 46.3296 284.993 46.1376 286.513 45.8603C290.224 45.1999 293.727 43.9913 296.982 42.0795C299.143 40.8076 300.997 39.1801 302.632 37.2897C303.023 36.8348 303.393 36.3585 303.791 35.8751C303.84 36.0672 303.883 36.2167 303.918 36.3655C304.11 37.2114 304.409 38.0218 304.8 38.789C305.702 40.5517 307.031 41.9164 308.666 43.0177C310.805 44.4537 313.186 45.3061 315.681 45.8677C318.644 46.5286 321.658 46.7062 324.685 46.7771C325.403 46.7985 326.121 46.7705 326.845 46.7347C327.862 46.6778 328.885 46.6988 329.902 46.6354C331.138 46.5641 332.368 46.4718 333.597 46.3511C335.438 46.166 337.258 45.8892 339.063 45.4837C341.813 44.8727 344.464 43.9773 346.923 42.5558C349.204 41.2336 351.073 39.4854 352.487 37.2542C353.575 35.534 354.285 33.672 354.684 31.6893C354.989 30.1685 355.089 28.6403 354.847 27.1125C354.456 24.625 353.262 22.5711 351.322 20.965C351.258 20.9081 351.151 20.8867 351.18 20.7301H353.859C354.265 20.7301 354.677 20.7231 355.082 20.7375C355.316 20.7375 355.465 20.7091 355.465 20.4104C355.472 20.0836 355.543 19.7639 355.586 19.4367C355.714 18.4775 355.842 17.5109 355.892 16.5443C355.935 15.6984 355.849 14.8529 355.714 14.0214ZM256.316 18.0581C255.996 20.1903 255.264 22.166 253.971 23.9073C252.485 25.904 250.538 27.2971 248.278 28.2851C246.451 29.0882 244.54 29.557 242.564 29.8129C240.972 30.0259 239.366 30.0902 237.76 30.0828C233.957 30.0762 230.148 30.0828 226.339 30.0828H226.154C225.721 30.0902 225.77 29.9979 225.671 30.4668C225.521 31.1561 225.4 31.8525 225.266 32.5492C224.648 35.726 224.022 38.9028 223.411 42.0795C223.361 42.3354 223.297 42.4495 222.999 42.4495C218.677 42.4421 214.349 42.4421 210.021 42.4421C209.943 42.4421 209.872 42.4281 209.772 42.4207C209.794 41.9304 209.922 41.4755 210.014 41.0206C210.753 37.2114 211.499 33.4021 212.239 29.5925L214.563 17.7099L216.489 7.80959L216.503 7.7173C216.624 7.21299 216.567 7.29828 217.007 7.29828L224.512 7.29084H242.585C244.54 7.29084 246.48 7.40501 248.399 7.81703C249.948 8.15119 251.426 8.6555 252.77 9.51541C254.475 10.6102 255.676 12.0881 256.188 14.0783C256.529 15.3931 256.515 16.7288 256.316 18.0581ZM308.147 25.1722C309.377 26.8566 309.988 27.3753 311.417 28.4198C311.104 28.527 308.239 28.555 307.365 28.4627C307.649 27.3968 307.934 26.3234 308.147 25.1722ZM305.049 24.0564C304.679 26.295 304.068 28.4701 303.115 30.5377C301.019 35.1075 297.622 38.3626 293.087 40.4734C290.707 41.5752 288.205 42.2925 285.625 42.726C282.903 43.1883 280.452 43.3659 277.502 43.3659C274.787 43.3519 271.908 43.1743 269.066 42.5558C267.076 42.1224 265.157 41.4969 263.373 40.4874C260.147 38.6753 258.114 35.9819 257.41 32.3218C257.133 30.8863 257.084 29.4433 257.197 27.9938C257.418 25.0301 258.086 22.1586 259.294 19.4297C261.341 14.803 264.723 11.4841 269.279 9.33083C271.766 8.15119 274.396 7.426 277.104 6.96412C280.452 6.40294 283.827 6.28179 287.21 6.41694C290.145 6.53766 293.037 6.90726 295.845 7.81703C297.863 8.47092 299.747 9.39469 301.367 10.7948C303.449 12.5999 304.658 14.8883 305.133 17.5818C305.51 19.7425 305.397 21.9032 305.049 24.0564ZM352.587 17.2122C352.573 17.4326 352.495 17.5393 352.267 17.5109C352.189 17.4965 352.111 17.5109 352.033 17.5109H337.264H337.122C336.774 17.5035 336.767 17.5035 336.738 17.1627C336.646 16.2245 336.17 15.5492 335.374 15.0803C334.713 14.6893 333.988 14.4763 333.242 14.3556C331.607 14.0923 329.958 14.0424 328.316 14.3271C327.627 14.4479 326.974 14.6539 326.363 14.995C325.972 15.215 325.63 15.4853 325.389 15.8694C324.955 16.5797 324.927 17.6106 326.042 18.1079C326.789 18.4417 327.592 18.6197 328.395 18.7474C330.321 19.0531 332.247 19.3304 334.173 19.6147C336.227 19.92 338.281 20.2183 340.327 20.5171C341.671 20.7091 343.007 20.8797 344.321 21.2134C345.622 21.5406 346.88 21.974 348.046 22.6419C349.588 23.5233 350.767 24.7173 351.35 26.4301C351.749 27.6098 351.812 28.8323 351.656 30.0618C351.343 32.5138 350.491 34.7449 348.92 36.6856C347.74 38.1351 346.283 39.2369 344.649 40.1183C342.729 41.1413 340.69 41.7882 338.579 42.2645C336.049 42.8401 333.476 43.1454 330.883 43.3234C328.196 43.5085 325.509 43.5649 322.823 43.4582C320.193 43.3589 317.585 43.0676 315.041 42.3568C313.506 41.9304 312.035 41.3478 310.691 40.4734C309.462 39.6774 308.417 38.6897 307.721 37.375C307.024 36.0457 306.768 34.6242 306.875 33.1318C306.903 32.7408 306.932 32.3502 307.01 31.9592C307.031 31.8315 307.088 31.7676 307.216 31.7676H307.55H315.29V31.7322H323.029C323.121 31.7322 323.221 31.7387 323.314 31.7322C323.47 31.7247 323.527 31.803 323.534 31.9592C323.548 32.9044 324.088 33.4944 324.863 33.9209C325.396 34.2122 325.964 34.3898 326.554 34.4891C328.558 34.8232 330.562 34.8018 332.545 34.3403C333.1 34.2122 333.625 33.9987 334.094 33.665C334.614 33.2954 334.962 32.8121 335.082 32.1726C335.211 31.5397 335.019 31.028 334.549 30.609C334.23 30.3177 333.846 30.1401 333.448 29.9839C332.467 29.6213 331.437 29.4722 330.406 29.344L324.841 28.6403C323.235 28.4343 321.629 28.2423 320.023 28.0152C318.168 27.7445 316.356 27.311 314.643 26.5154C313.982 26.2097 313.356 25.8475 312.781 25.4137C310.905 23.9996 309.931 22.1022 309.967 19.7709C310.009 16.9139 310.905 14.3341 312.745 12.124C314.053 10.5529 315.709 9.46555 317.571 8.66294C319.398 7.88089 321.316 7.39757 323.271 7.0564C326.931 6.43837 330.619 6.32465 334.322 6.38851C336.539 6.42394 338.75 6.56609 340.946 6.87183C343.241 7.19855 345.494 7.68187 347.612 8.66294C348.529 9.08895 349.382 9.61514 350.142 10.29C351.649 11.6337 352.445 13.3321 352.601 15.3292C352.651 15.9542 352.637 16.5871 352.587 17.2122Z" fill="black"/>
<path fill-rule="evenodd" clip-rule="evenodd" d="M239.132 15.3076C238.99 15.2508 238.833 15.2079 238.684 15.1655C237.739 14.9026 236.765 14.8457 235.791 14.8387C233.29 14.8173 230.795 14.8313 228.294 14.8313C227.946 14.8313 227.946 14.8387 227.875 15.1799L227.149 18.8684L226.46 22.4502H226.979L233.766 22.4428C234.207 22.4428 234.647 22.4428 235.088 22.4148C236.09 22.3505 237.092 22.2512 238.044 21.903C239.032 21.5404 239.729 20.8795 240.148 19.9273C240.503 19.1313 240.674 18.2854 240.646 17.4115C240.61 16.3451 240.126 15.6772 239.132 15.3076ZM237.049 18.8824C236.822 19.1667 236.452 19.3587 235.934 19.465C235.429 19.5647 234.896 19.5932 234.363 19.6146C234.157 19.6216 234.015 19.6216 233.667 19.6216H231.592H230.227L230.639 17.397L230.767 17.39C232.089 17.39 233.418 17.39 234.74 17.397C235.251 17.397 235.77 17.4115 236.275 17.4893L236.509 17.5322C237.035 17.6389 237.291 17.8375 237.313 18.1507C237.327 18.4061 237.234 18.648 237.049 18.8824Z" fill="black"/>
</g>
</g>
<defs>
<clipPath id="clip0_30_631">
<rect width="372" height="50.8466" fill="white"/>
</clipPath>
</defs>
</svg>
