<svg width="686" height="192" viewBox="0 0 686 192" fill="none" xmlns="http://www.w3.org/2000/svg">
<path d="M89.85 165L80.1 155.55C70.4 162.95 58.8 166.65 45.3 166.65C37.2 166.65 30.15 165.35 24.15 162.75C18.15 160.05 13.5 156.3 10.2 151.5C7 146.6 5.4 140.9 5.4 134.4C5.4 127.8 7.15 121.85 10.65 116.55C14.25 111.15 19.6 106.75 26.7 103.35C24.1 100.15 22.25 97.1 21.15 94.2C20.05 91.2 19.5 87.95 19.5 84.45C19.5 79.45 20.8 74.9 23.4 70.8C26 66.7 29.75 63.5 34.65 61.2C39.65 58.8 45.55 57.6 52.35 57.6C59.25 57.6 65.1 58.85 69.9 61.35C74.7 63.85 78.3 67.2 80.7 71.4C83.1 75.6 84.2 80.2 84 85.2H59.85C59.95 82.5 59.25 80.45 57.75 79.05C56.35 77.55 54.45 76.8 52.05 76.8C49.65 76.8 47.65 77.5 46.05 78.9C44.45 80.3 43.65 82.1 43.65 84.3C43.65 86.4 44.3 88.6 45.6 90.9C47 93.2 49.15 95.85 52.05 98.85L77.7 123.9C77.9 123.4 78.15 122.8 78.45 122.1C78.85 121.4 79.25 120.6 79.65 119.7L85.2 110.25H110.85L103.65 123.3C100.95 129.2 97.85 134.8 94.35 140.1L119.7 165H89.85ZM46.5 145.95C53.2 145.95 59.15 144.05 64.35 140.25L40.95 117.6C33.75 121.3 30.15 126.3 30.15 132.6C30.15 136.4 31.6 139.6 34.5 142.2C37.5 144.7 41.5 145.95 46.5 145.95Z" fill="black"/>
<path d="M130.4 99H120.14L102.98 73.02V99H92.72V56.88H102.98L120.14 82.98V56.88H130.4V99ZM157.757 99.42C153.797 99.42 150.157 98.5 146.837 96.66C143.557 94.82 140.937 92.26 138.977 88.98C137.057 85.66 136.097 81.94 136.097 77.82C136.097 73.7 137.057 70 138.977 66.72C140.937 63.44 143.557 60.88 146.837 59.04C150.157 57.2 153.797 56.28 157.757 56.28C161.717 56.28 165.337 57.2 168.617 59.04C171.937 60.88 174.537 63.44 176.417 66.72C178.337 70 179.297 73.7 179.297 77.82C179.297 81.94 178.337 85.66 176.417 88.98C174.497 92.26 171.897 94.82 168.617 96.66C165.337 98.5 161.717 99.42 157.757 99.42ZM157.757 90.06C161.117 90.06 163.797 88.94 165.797 86.7C167.837 84.46 168.857 81.5 168.857 77.82C168.857 74.1 167.837 71.14 165.797 68.94C163.797 66.7 161.117 65.58 157.757 65.58C154.357 65.58 151.637 66.68 149.597 68.88C147.597 71.08 146.597 74.06 146.597 77.82C146.597 81.54 147.597 84.52 149.597 86.76C151.637 88.96 154.357 90.06 157.757 90.06ZM200.245 99.42C197.165 99.42 194.405 98.92 191.965 97.92C189.525 96.92 187.565 95.44 186.085 93.48C184.645 91.52 183.885 89.16 183.805 86.4H194.725C194.885 87.96 195.425 89.16 196.345 90C197.265 90.8 198.465 91.2 199.945 91.2C201.465 91.2 202.665 90.86 203.545 90.18C204.425 89.46 204.865 88.48 204.865 87.24C204.865 86.2 204.505 85.34 203.785 84.66C203.105 83.98 202.245 83.42 201.205 82.98C200.205 82.54 198.765 82.04 196.885 81.48C194.165 80.64 191.945 79.8 190.225 78.96C188.505 78.12 187.025 76.88 185.785 75.24C184.545 73.6 183.925 71.46 183.925 68.82C183.925 64.9 185.345 61.84 188.185 59.64C191.025 57.4 194.725 56.28 199.285 56.28C203.925 56.28 207.665 57.4 210.505 59.64C213.345 61.84 214.865 64.92 215.065 68.88H203.965C203.885 67.52 203.385 66.46 202.465 65.7C201.545 64.9 200.365 64.5 198.925 64.5C197.685 64.5 196.685 64.84 195.925 65.52C195.165 66.16 194.785 67.1 194.785 68.34C194.785 69.7 195.425 70.76 196.705 71.52C197.985 72.28 199.985 73.1 202.705 73.98C205.425 74.9 207.625 75.78 209.305 76.62C211.025 77.46 212.505 78.68 213.745 80.28C214.985 81.88 215.605 83.94 215.605 86.46C215.605 88.86 214.985 91.04 213.745 93C212.545 94.96 210.785 96.52 208.465 97.68C206.145 98.84 203.405 99.42 200.245 99.42ZM237.159 99.42C234.079 99.42 231.319 98.92 228.879 97.92C226.439 96.92 224.479 95.44 222.999 93.48C221.559 91.52 220.799 89.16 220.719 86.4H231.639C231.799 87.96 232.339 89.16 233.259 90C234.179 90.8 235.379 91.2 236.859 91.2C238.379 91.2 239.579 90.86 240.459 90.18C241.339 89.46 241.779 88.48 241.779 87.24C241.779 86.2 241.419 85.34 240.699 84.66C240.019 83.98 239.159 83.42 238.119 82.98C237.119 82.54 235.679 82.04 233.799 81.48C231.079 80.64 228.859 79.8 227.139 78.96C225.419 78.12 223.939 76.88 222.699 75.24C221.459 73.6 220.839 71.46 220.839 68.82C220.839 64.9 222.259 61.84 225.099 59.64C227.939 57.4 231.639 56.28 236.199 56.28C240.839 56.28 244.579 57.4 247.419 59.64C250.259 61.84 251.779 64.92 251.979 68.88H240.879C240.799 67.52 240.299 66.46 239.379 65.7C238.459 64.9 237.279 64.5 235.839 64.5C234.599 64.5 233.599 64.84 232.839 65.52C232.079 66.16 231.699 67.1 231.699 68.34C231.699 69.7 232.339 70.76 233.619 71.52C234.899 72.28 236.899 73.1 239.619 73.98C242.339 74.9 244.539 75.78 246.219 76.62C247.939 77.46 249.419 78.68 250.659 80.28C251.899 81.88 252.519 83.94 252.519 86.46C252.519 88.86 251.899 91.04 250.659 93C249.459 94.96 247.699 96.52 245.379 97.68C243.059 98.84 240.319 99.42 237.159 99.42ZM278.753 99.42C274.793 99.42 271.153 98.5 267.833 96.66C264.553 94.82 261.933 92.26 259.973 88.98C258.053 85.66 257.093 81.94 257.093 77.82C257.093 73.7 258.053 70 259.973 66.72C261.933 63.44 264.553 60.88 267.833 59.04C271.153 57.2 274.793 56.28 278.753 56.28C282.713 56.28 286.333 57.2 289.613 59.04C292.933 60.88 295.533 63.44 297.413 66.72C299.333 70 300.293 73.7 300.293 77.82C300.293 81.94 299.333 85.66 297.413 88.98C295.493 92.26 292.893 94.82 289.613 96.66C286.333 98.5 282.713 99.42 278.753 99.42ZM278.753 90.06C282.113 90.06 284.793 88.94 286.793 86.7C288.833 84.46 289.853 81.5 289.853 77.82C289.853 74.1 288.833 71.14 286.793 68.94C284.793 66.7 282.113 65.58 278.753 65.58C275.353 65.58 272.633 66.68 270.593 68.88C268.593 71.08 267.593 74.06 267.593 77.82C267.593 81.54 268.593 84.52 270.593 86.76C272.633 88.96 275.353 90.06 278.753 90.06ZM321.241 99.42C318.161 99.42 315.401 98.92 312.961 97.92C310.521 96.92 308.561 95.44 307.081 93.48C305.641 91.52 304.881 89.16 304.801 86.4H315.721C315.881 87.96 316.421 89.16 317.341 90C318.261 90.8 319.461 91.2 320.941 91.2C322.461 91.2 323.661 90.86 324.541 90.18C325.421 89.46 325.861 88.48 325.861 87.24C325.861 86.2 325.501 85.34 324.781 84.66C324.101 83.98 323.241 83.42 322.201 82.98C321.201 82.54 319.761 82.04 317.881 81.48C315.161 80.64 312.941 79.8 311.221 78.96C309.501 78.12 308.021 76.88 306.781 75.24C305.541 73.6 304.921 71.46 304.921 68.82C304.921 64.9 306.341 61.84 309.181 59.64C312.021 57.4 315.721 56.28 320.281 56.28C324.921 56.28 328.661 57.4 331.501 59.64C334.341 61.84 335.861 64.92 336.061 68.88H324.961C324.881 67.52 324.381 66.46 323.461 65.7C322.541 64.9 321.361 64.5 319.921 64.5C318.681 64.5 317.681 64.84 316.921 65.52C316.161 66.16 315.781 67.1 315.781 68.34C315.781 69.7 316.421 70.76 317.701 71.52C318.981 72.28 320.981 73.1 323.701 73.98C326.421 74.9 328.621 75.78 330.301 76.62C332.021 77.46 333.501 78.68 334.741 80.28C335.981 81.88 336.601 83.94 336.601 86.46C336.601 88.86 335.981 91.04 334.741 93C333.541 94.96 331.781 96.52 329.461 97.68C327.141 98.84 324.401 99.42 321.241 99.42ZM387.73 70.44C387.73 72.88 387.17 75.12 386.05 77.16C384.93 79.16 383.21 80.78 380.89 82.02C378.57 83.26 375.69 83.88 372.25 83.88H365.89V99H355.63V56.88H372.25C375.61 56.88 378.45 57.46 380.77 58.62C383.09 59.78 384.83 61.38 385.99 63.42C387.15 65.46 387.73 67.8 387.73 70.44ZM371.47 75.72C373.43 75.72 374.89 75.26 375.85 74.34C376.81 73.42 377.29 72.12 377.29 70.44C377.29 68.76 376.81 67.46 375.85 66.54C374.89 65.62 373.43 65.16 371.47 65.16H365.89V75.72H371.47ZM414.552 99L405.792 83.1H403.332V99H393.072V56.88H410.292C413.612 56.88 416.432 57.46 418.752 58.62C421.112 59.78 422.872 61.38 424.032 63.42C425.192 65.42 425.772 67.66 425.772 70.14C425.772 72.94 424.972 75.44 423.372 77.64C421.812 79.84 419.492 81.4 416.412 82.32L426.132 99H414.552ZM403.332 75.84H409.692C411.572 75.84 412.972 75.38 413.892 74.46C414.852 73.54 415.332 72.24 415.332 70.56C415.332 68.96 414.852 67.7 413.892 66.78C412.972 65.86 411.572 65.4 409.692 65.4H403.332V75.84ZM452.132 99.42C448.172 99.42 444.532 98.5 441.212 96.66C437.932 94.82 435.312 92.26 433.352 88.98C431.432 85.66 430.472 81.94 430.472 77.82C430.472 73.7 431.432 70 433.352 66.72C435.312 63.44 437.932 60.88 441.212 59.04C444.532 57.2 448.172 56.28 452.132 56.28C456.092 56.28 459.712 57.2 462.992 59.04C466.312 60.88 468.912 63.44 470.792 66.72C472.712 70 473.672 73.7 473.672 77.82C473.672 81.94 472.712 85.66 470.792 88.98C468.872 92.26 466.272 94.82 462.992 96.66C459.712 98.5 456.092 99.42 452.132 99.42ZM452.132 90.06C455.492 90.06 458.172 88.94 460.172 86.7C462.212 84.46 463.232 81.5 463.232 77.82C463.232 74.1 462.212 71.14 460.172 68.94C458.172 66.7 455.492 65.58 452.132 65.58C448.732 65.58 446.012 66.68 443.972 68.88C441.972 71.08 440.972 74.06 440.972 77.82C440.972 81.54 441.972 84.52 443.972 86.76C446.012 88.96 448.732 90.06 452.132 90.06ZM495.16 56.88C499.6 56.88 503.48 57.76 506.8 59.52C510.12 61.28 512.68 63.76 514.48 66.96C516.32 70.12 517.24 73.78 517.24 77.94C517.24 82.06 516.32 85.72 514.48 88.92C512.68 92.12 510.1 94.6 506.74 96.36C503.42 98.12 499.56 99 495.16 99H479.38V56.88H495.16ZM494.5 90.12C498.38 90.12 501.4 89.06 503.56 86.94C505.72 84.82 506.8 81.82 506.8 77.94C506.8 74.06 505.72 71.04 503.56 68.88C501.4 66.72 498.38 65.64 494.5 65.64H489.64V90.12H494.5ZM533.054 56.88V82.08C533.054 84.6 533.674 86.54 534.914 87.9C536.154 89.26 537.974 89.94 540.374 89.94C542.774 89.94 544.614 89.26 545.894 87.9C547.174 86.54 547.814 84.6 547.814 82.08V56.88H558.074V82.02C558.074 85.78 557.274 88.96 555.674 91.56C554.074 94.16 551.914 96.12 549.194 97.44C546.514 98.76 543.514 99.42 540.194 99.42C536.874 99.42 533.894 98.78 531.254 97.5C528.654 96.18 526.594 94.22 525.074 91.62C523.554 88.98 522.794 85.78 522.794 82.02V56.88H533.054ZM595.579 56.88V65.1H584.419V99H574.159V65.1H562.999V56.88H595.579ZM620.648 99.42C616.688 99.42 613.048 98.5 609.728 96.66C606.448 94.82 603.828 92.26 601.868 88.98C599.948 85.66 598.988 81.94 598.988 77.82C598.988 73.7 599.948 70 601.868 66.72C603.828 63.44 606.448 60.88 609.728 59.04C613.048 57.2 616.688 56.28 620.648 56.28C624.608 56.28 628.228 57.2 631.508 59.04C634.828 60.88 637.428 63.44 639.308 66.72C641.228 70 642.188 73.7 642.188 77.82C642.188 81.94 641.228 85.66 639.308 88.98C637.388 92.26 634.788 94.82 631.508 96.66C628.228 98.5 624.608 99.42 620.648 99.42ZM620.648 90.06C624.008 90.06 626.688 88.94 628.688 86.7C630.728 84.46 631.748 81.5 631.748 77.82C631.748 74.1 630.728 71.14 628.688 68.94C626.688 66.7 624.008 65.58 620.648 65.58C617.248 65.58 614.528 66.68 612.488 68.88C610.488 71.08 609.488 74.06 609.488 77.82C609.488 81.54 610.488 84.52 612.488 86.76C614.528 88.96 617.248 90.06 620.648 90.06ZM663.136 99.42C660.056 99.42 657.296 98.92 654.856 97.92C652.416 96.92 650.456 95.44 648.976 93.48C647.536 91.52 646.776 89.16 646.696 86.4H657.616C657.776 87.96 658.316 89.16 659.236 90C660.156 90.8 661.356 91.2 662.836 91.2C664.356 91.2 665.556 90.86 666.436 90.18C667.316 89.46 667.756 88.48 667.756 87.24C667.756 86.2 667.396 85.34 666.676 84.66C665.996 83.98 665.136 83.42 664.096 82.98C663.096 82.54 661.656 82.04 659.776 81.48C657.056 80.64 654.836 79.8 653.116 78.96C651.396 78.12 649.916 76.88 648.676 75.24C647.436 73.6 646.816 71.46 646.816 68.82C646.816 64.9 648.236 61.84 651.076 59.64C653.916 57.4 657.616 56.28 662.176 56.28C666.816 56.28 670.556 57.4 673.396 59.64C676.236 61.84 677.756 64.92 677.956 68.88H666.856C666.776 67.52 666.276 66.46 665.356 65.7C664.436 64.9 663.256 64.5 661.816 64.5C660.576 64.5 659.576 64.84 658.816 65.52C658.056 66.16 657.676 67.1 657.676 68.34C657.676 69.7 658.316 70.76 659.596 71.52C660.876 72.28 662.876 73.1 665.596 73.98C668.316 74.9 670.516 75.78 672.196 76.62C673.916 77.46 675.396 78.68 676.636 80.28C677.876 81.88 678.496 83.94 678.496 86.46C678.496 88.86 677.876 91.04 676.636 93C675.436 94.96 673.676 96.52 671.356 97.68C669.036 98.84 666.296 99.42 663.136 99.42Z" fill="black"/>
<path d="M138.96 165.42C135.88 165.42 133.12 164.92 130.68 163.92C128.24 162.92 126.28 161.44 124.8 159.48C123.36 157.52 122.6 155.16 122.52 152.4H133.44C133.6 153.96 134.14 155.16 135.06 156C135.98 156.8 137.18 157.2 138.66 157.2C140.18 157.2 141.38 156.86 142.26 156.18C143.14 155.46 143.58 154.48 143.58 153.24C143.58 152.2 143.22 151.34 142.5 150.66C141.82 149.98 140.96 149.42 139.92 148.98C138.92 148.54 137.48 148.04 135.6 147.48C132.88 146.64 130.66 145.8 128.94 144.96C127.22 144.12 125.74 142.88 124.5 141.24C123.26 139.6 122.64 137.46 122.64 134.82C122.64 130.9 124.06 127.84 126.9 125.64C129.74 123.4 133.44 122.28 138 122.28C142.64 122.28 146.38 123.4 149.22 125.64C152.06 127.84 153.58 130.92 153.78 134.88H142.68C142.6 133.52 142.1 132.46 141.18 131.7C140.26 130.9 139.08 130.5 137.64 130.5C136.4 130.5 135.4 130.84 134.64 131.52C133.88 132.16 133.5 133.1 133.5 134.34C133.5 135.7 134.14 136.76 135.42 137.52C136.7 138.28 138.7 139.1 141.42 139.98C144.14 140.9 146.34 141.78 148.02 142.62C149.74 143.46 151.22 144.68 152.46 146.28C153.7 147.88 154.32 149.94 154.32 152.46C154.32 154.86 153.7 157.04 152.46 159C151.26 160.96 149.5 162.52 147.18 163.68C144.86 164.84 142.12 165.42 138.96 165.42ZM170.894 131.1V139.62H184.634V147.54H170.894V156.78H186.434V165H160.634V122.88H186.434V131.1H170.894ZM214.575 165L205.815 149.1H203.355V165H193.095V122.88H210.315C213.635 122.88 216.455 123.46 218.775 124.62C221.135 125.78 222.895 127.38 224.055 129.42C225.215 131.42 225.795 133.66 225.795 136.14C225.795 138.94 224.995 141.44 223.395 143.64C221.835 145.84 219.515 147.4 216.435 148.32L226.155 165H214.575ZM203.355 141.84H209.715C211.595 141.84 212.995 141.38 213.915 140.46C214.875 139.54 215.355 138.24 215.355 136.56C215.355 134.96 214.875 133.7 213.915 132.78C212.995 131.86 211.595 131.4 209.715 131.4H203.355V141.84ZM271.776 122.88L256.836 165H243.996L229.056 122.88H239.976L250.416 154.68L260.916 122.88H271.776ZM286.324 122.88V165H276.064V122.88H286.324ZM313.079 156C315.039 156 316.779 155.54 318.299 154.62C319.859 153.7 321.059 152.36 321.899 150.6H333.179C332.099 154.64 330.079 157.94 327.119 160.5C324.199 163.02 320.639 164.56 316.439 165.12V167.46C318.519 167.46 320.339 168.02 321.899 169.14C323.459 170.3 324.239 172.02 324.239 174.3C324.239 176.58 323.419 178.3 321.779 179.46C320.139 180.66 318.179 181.26 315.899 181.26H306.659V175.62H314.519C315.319 175.62 315.919 175.5 316.319 175.26C316.719 175.02 316.919 174.62 316.919 174.06C316.919 173.5 316.719 173.1 316.319 172.86C315.919 172.66 315.319 172.56 314.519 172.56H310.259V165.12C306.659 164.72 303.479 163.58 300.719 161.7C297.959 159.78 295.819 157.28 294.299 154.2C292.779 151.12 292.019 147.68 292.019 143.88C292.019 139.72 292.919 136.02 294.719 132.78C296.519 129.5 299.019 126.96 302.219 125.16C305.459 123.32 309.119 122.4 313.199 122.4C318.199 122.4 322.479 123.72 326.039 126.36C329.599 129 331.979 132.6 333.179 137.16H321.899C321.059 135.4 319.859 134.06 318.299 133.14C316.779 132.22 315.039 131.76 313.079 131.76C309.919 131.76 307.359 132.86 305.399 135.06C303.439 137.26 302.459 140.2 302.459 143.88C302.459 147.56 303.439 150.5 305.399 152.7C307.359 154.9 309.919 156 313.079 156ZM359.382 165.42C355.422 165.42 351.782 164.5 348.462 162.66C345.182 160.82 342.562 158.26 340.602 154.98C338.682 151.66 337.722 147.94 337.722 143.82C337.722 139.7 338.682 136 340.602 132.72C342.562 129.44 345.182 126.88 348.462 125.04C351.782 123.2 355.422 122.28 359.382 122.28C363.342 122.28 366.962 123.2 370.242 125.04C373.562 126.88 376.162 129.44 378.042 132.72C379.962 136 380.922 139.7 380.922 143.82C380.922 147.94 379.962 151.66 378.042 154.98C376.122 158.26 373.522 160.82 370.242 162.66C366.962 164.5 363.342 165.42 359.382 165.42ZM359.382 156.06C362.742 156.06 365.422 154.94 367.422 152.7C369.462 150.46 370.482 147.5 370.482 143.82C370.482 140.1 369.462 137.14 367.422 134.94C365.422 132.7 362.742 131.58 359.382 131.58C355.982 131.58 353.262 132.68 351.222 134.88C349.222 137.08 348.222 140.06 348.222 143.82C348.222 147.54 349.222 150.52 351.222 152.76C353.262 154.96 355.982 156.06 359.382 156.06ZM401.87 165.42C398.79 165.42 396.03 164.92 393.59 163.92C391.15 162.92 389.19 161.44 387.71 159.48C386.27 157.52 385.51 155.16 385.43 152.4H396.35C396.51 153.96 397.05 155.16 397.97 156C398.89 156.8 400.09 157.2 401.57 157.2C403.09 157.2 404.29 156.86 405.17 156.18C406.05 155.46 406.49 154.48 406.49 153.24C406.49 152.2 406.13 151.34 405.41 150.66C404.73 149.98 403.87 149.42 402.83 148.98C401.83 148.54 400.39 148.04 398.51 147.48C395.79 146.64 393.57 145.8 391.85 144.96C390.13 144.12 388.65 142.88 387.41 141.24C386.17 139.6 385.55 137.46 385.55 134.82C385.55 130.9 386.97 127.84 389.81 125.64C392.65 123.4 396.35 122.28 400.91 122.28C405.55 122.28 409.29 123.4 412.13 125.64C414.97 127.84 416.49 130.92 416.69 134.88H405.59C405.51 133.52 405.01 132.46 404.09 131.7C403.17 130.9 401.99 130.5 400.55 130.5C399.31 130.5 398.31 130.84 397.55 131.52C396.79 132.16 396.41 133.1 396.41 134.34C396.41 135.7 397.05 136.76 398.33 137.52C399.61 138.28 401.61 139.1 404.33 139.98C407.05 140.9 409.25 141.78 410.93 142.62C412.65 143.46 414.13 144.68 415.37 146.28C416.61 147.88 417.23 149.94 417.23 152.46C417.23 154.86 416.61 157.04 415.37 159C414.17 160.96 412.41 162.52 410.09 163.68C407.77 164.84 405.03 165.42 401.87 165.42Z" fill="black"/>
</svg>
